<?xml version="1.0" encoding="UTF-8" standalone="no"?>
<svg
   xmlns:dc="http://purl.org/dc/elements/1.1/"
   xmlns:cc="http://creativecommons.org/ns#"
   xmlns:rdf="http://www.w3.org/1999/02/22-rdf-syntax-ns#"
   xmlns:svg="http://www.w3.org/2000/svg"
   xmlns="http://www.w3.org/2000/svg"
   xmlns:sodipodi="http://sodipodi.sourceforge.net/DTD/sodipodi-0.dtd"
   xmlns:inkscape="http://www.inkscape.org/namespaces/inkscape"
   height="300pt"
   preserveAspectRatio="xMidYMid meet"
   viewBox="0 0 299.99999 300"
   width="300pt"
   version="1.1"
   id="svg893"
   sodipodi:docname="Logo_design.svg"
   inkscape:version="1.0.2 (e86c870879, 2021-01-15, custom)"
   inkscape:export-filename="C:\Users\Bijbrengen\Documents\Hedude\Logo_Hedude.png"
   inkscape:export-xdpi="96"
   inkscape:export-ydpi="96">
  <metadata
     id="metadata899">
    <rdf:RDF>
      <cc:Work
         rdf:about="">
        <dc:format>image/svg+xml</dc:format>
        <dc:type
           rdf:resource="http://purl.org/dc/dcmitype/StillImage" />
        <dc:title></dc:title>
      </cc:Work>
    </rdf:RDF>
  </metadata>
  <defs
     id="defs897" />
  <sodipodi:namedview
     pagecolor="#ffffff"
     bordercolor="#666666"
     borderopacity="1"
     objecttolerance="10"
     gridtolerance="10"
     guidetolerance="10"
     inkscape:pageopacity="0"
     inkscape:pageshadow="2"
     inkscape:window-width="1920"
     inkscape:window-height="1001"
     id="namedview895"
     showgrid="false"
     inkscape:zoom="0.85971478"
     inkscape:cx="544.04275"
     inkscape:cy="191.91107"
     inkscape:window-x="-9"
     inkscape:window-y="-9"
     inkscape:window-maximized="1"
     inkscape:current-layer="layer2"
     inkscape:document-rotation="0"
     fit-margin-top="0"
     fit-margin-left="0"
     fit-margin-right="0"
     fit-margin-bottom="0" />
  <g
     inkscape:groupmode="layer"
     id="layer4"
     inkscape:label="Background"
     style="display:inline"
     transform="translate(-134.88288,-89.487104)" />
  <g
     inkscape:groupmode="layer"
     id="layer1"
     inkscape:label="Brain"
     style="display:inline"
     transform="translate(-134.88288,-89.487104)" />
  <g
     inkscape:groupmode="layer"
     id="layer2"
     inkscape:label="Mouse"
     style="display:inline"
     transform="translate(-134.88288,-89.487104)">
    <g
       id="g1542"
       transform="translate(19.192411,1.7447647)">
      <path
         d="m 126.54515,132.29274 c -3.96122,4.38088 -5.65552,44.44411 -2.16494,51.19779 3.23172,6.25167 12.39352,5.87516 14.53101,-0.59614 2.19632,-6.65564 0.8393,-45.76582 -1.70607,-49.19365 -2.59637,-3.49058 -8.11462,-4.21615 -10.66,-1.408 z"
         id="path889"
         style="stroke-width:0.003922"
         transform="translate(134.88288,89.487104)" />
      <ellipse
         style="display:inline;fill:#ff7f2a;fill-opacity:1;stroke:none;stroke-width:29.493;stroke-linecap:round;stroke-linejoin:round;stroke-miterlimit:4;stroke-dasharray:none;stroke-opacity:1;paint-order:stroke markers fill"
         id="path1479"
         cx="264.76804"
         cy="232.05368"
         rx="119.79224"
         ry="140.7294"
         transform="translate(2.248048e-6)" />
      <g
         transform="matrix(0.00246637,0,0,-0.00255422,100.76835,397.82217)"
         id="g863"
         style="display:inline;fill:#92278f;fill-opacity:1">
        <path
           d="m 64260,120600 c -1052,-107 -2945,-268 -4207,-359 -2340,-169 -8050,-1490 -10583,-2449 -771,-291 -1692,-621 -2046,-732 -7049,-2207 -17470,-10527 -21418,-17101 -463,-771 -1156,-1746 -1540,-2166 -383,-421 -1002,-1339 -1374,-2040 -887,-1673 -1385,-2557 -2237,-3969 -1623,-2691 -5023,-12141 -5682,-15794 -240,-1332 -546,-2939 -680,-3570 -910,-4300 -872,-17095 61,-20158 148,-484 534,-2084 858,-3557 1720,-7818 5232,-16364 8981,-21854 939,-1374 2059,-3021 2490,-3660 2551,-3778 6291,-7398 11489,-11120 5338,-3823 10533,-4976 13486,-2995 2263,1518 4380,2674 5368,2932 432,113 1991,519 3464,903 2936,766 9112,980 11858,412 3522,-729 7518,-2318 9435,-3751 3244,-2425 9208,-1313 14362,2679 375,290 1428,1083 2340,1760 8887,6606 18039,22124 20295,34409 222,1209 519,2542 659,2963 141,420 351,1166 467,1657 294,1249 143,17417 -179,19125 -1927,10206 -5184,18659 -9823,25488 -433,638 -1122,1723 -1530,2411 -1441,2427 -6646,8039 -9143,9857 -3919,2852 -7086,4747 -10277,6148 -6349,2788 -12137,4152 -18670,4399 -1696,64 -3359,164 -3697,222 -338,57 -1475,17 -2527,-90 z m -1968,-9441 c 1648,-553 4263,-2117 4263,-2551 0,-540 796,-509 1511,60 2957,2355 5200,3114 8538,2890 2652,-178 2966,-274 6654,-2040 1262,-605 2868,-1296 3570,-1536 3363,-1153 7700,-4720 12576,-10342 2427,-2798 2316,-6350 -197,-6350 -1065,0 -1035,-59 1156,-2263 6004,-6040 7636,-8304 9671,-13419 1035,-2603 1395,-4132 1398,-5946 2,-886 112,-1814 245,-2062 439,-820 379,-9324 -86,-12304 -716,-4580 -2149,-8090 -4522,-11075 -1520,-1911 -3988,-4778 -4592,-5333 -152,-141 -1097,-1063 -2098,-2049 -1002,-987 -2497,-2249 -3322,-2805 -2938,-1980 -7765,-8309 -6639,-8706 604,-212 3108,2487 5074,5469 1944,2948 4834,3710 5461,1439 1188,-4300 -13612,-18975 -16072,-15937 -674,832 -592,1589 289,2699 1561,1964 963,2611 -1244,1345 -1378,-790 -1563,-826 -4748,-918 l -3315,-96 -1931,883 c -1061,485 -2610,1397 -3442,2027 -2264,1715 -4695,1685 -6766,-83 -3588,-3062 -10436,-3881 -13507,-1615 -1474,1087 -2059,32 -856,-1545 1900,-2491 -1652,-4257 -4136,-2055 -260,230 -1227,1017 -2148,1748 -1845,1463 -3877,3590 -5611,5875 -2309,3042 -2569,3360 -2808,3445 -884,315 -1497,3419 -902,4570 985,1904 2891,1255 5168,-1760 2058,-2725 5265,-5776 5381,-5119 240,1362 -5175,7726 -8053,9465 -964,582 -2119,1514 -2567,2072 -448,557 -970,1013 -1162,1013 -1030,0 -6896,7953 -7928,10750 -1880,5096 -1901,5225 -1964,11945 -118,12584 1401,17314 7751,24135 934,1003 1772,2058 1863,2346 91,288 372,588 624,668 252,80 821,596 1263,1147 443,551 1149,1204 1569,1453 1068,631 954,848 -412,789 -3242,-141 -2769,3653 933,7485 625,646 1881,1955 2793,2909 2487,2601 6532,5455 8798,6208 954,316 5580,2331 6562,2858 244,130 818,248 1275,262 458,14 1119,118 1470,230 1216,390 3558,264 5172,-276 z"
           id="path853"
           style="fill:#92278f;fill-opacity:1" />
        <path
           d="m 55208,103405 c -3315,-843 -4872,-2282 -6899,-6377 -2437,-4926 -3947,-6664 -7764,-8936 -1626,-969 -4022,-3073 -6956,-6109 -3814,-3949 -5807,-12209 -3633,-15059 2777,-3642 4213,-3991 9696,-2360 3191,950 9201,4426 12919,7474 2285,1872 3217,2215 3742,1374 310,-496 206,-665 -1341,-2167 -1817,-1764 -1848,-1831 -1325,-2854 463,-906 145,-1728 -888,-2291 -3835,-2094 -4218,-2806 -2906,-5410 1064,-2113 1125,-2896 269,-3456 -865,-567 -1728,-381 -2130,460 -184,385 -437,701 -562,701 -125,0 -799,582 -1499,1293 -1096,1113 -1344,1255 -1784,1019 -2216,-1186 -4856,-1860 -7995,-2043 -6930,-403 -8656,-4305 -5063,-11448 971,-1930 4188,-5651 4887,-5651 102,0 666,-402 1254,-892 588,-491 1162,-893 1276,-893 356,0 3794,-2021 4987,-2931 1441,-1100 2869,-2749 4080,-4710 522,-847 1041,-1539 1154,-1539 112,0 408,-344 656,-765 1341,-2270 6183,-3872 8936,-2958 3753,1247 5023,3775 5395,10736 239,4472 26,61320 -232,61999 -623,1637 -2670,3217 -4959,3827 -1486,396 -1628,395 -3315,-34 z"
           id="path855"
           style="fill:#92278f;fill-opacity:1" />
        <path
           d="m 75744,103348 c -1725,-460 -2562,-1044 -3872,-2701 l -1022,-1293 122,-31381 c 148,-38004 101,-37334 2814,-39713 4156,-3644 9836,-1651 13991,4909 1163,1837 3821,4184 6142,5422 1008,538 2429,1456 3158,2040 728,584 1799,1406 2379,1827 2894,2097 5612,7351 5600,10827 -12,3640 -2444,5508 -7008,5385 -1998,-54 -5394,739 -7584,1770 -667,314 -744,277 -1730,-844 -568,-645 -1240,-1238 -1494,-1319 -255,-81 -595,-438 -757,-794 -259,-567 -429,-638 -1378,-569 -1701,123 -1905,1365 -620,3786 1384,2610 1218,2940 -2681,5307 -1130,687 -1362,1279 -949,2421 433,1198 140,2062 -911,2682 -954,563 -1064,913 -604,1921 477,1048 1750,904 1750,-198 0,-173 470,-653 1045,-1065 574,-413 1421,-1066 1882,-1452 461,-385 944,-701 1073,-701 130,0 631,-300 1114,-666 483,-366 1452,-945 2154,-1287 701,-341 1963,-1011 2805,-1489 7830,-4444 13698,-2709 14089,4165 232,4084 -1866,9124 -5123,12303 -3115,3040 -5390,4996 -6671,5733 -4048,2330 -5328,3949 -7987,10109 -1098,2545 -5965,5686 -8163,5270 -94,-18 -798,-200 -1564,-405 z"
           id="path857"
           style="fill:#92278f;fill-opacity:1" />
        <path
           d="m 89420,101065 c -317,-317 -172,-580 1424,-2573 876,-1095 2278,-2894 3116,-3997 1508,-1987 2652,-2947 3514,-2949 486,-1 600,384 189,638 -141,87 -792,983 -1447,1991 -1512,2326 -2621,3768 -3263,4246 -278,206 -1111,924 -1852,1594 -1453,1316 -1429,1302 -1681,1050 z"
           id="path859"
           style="fill:#92278f;fill-opacity:1" />
        <path
           d="m 43976,100480 c -1504,-960 -4914,-4737 -5601,-6203 -211,-451 -676,-1219 -1034,-1707 -379,-518 -534,-927 -372,-980 509,-170 2010,1219 3745,3467 945,1224 2090,2649 2545,3167 1614,1835 2010,3082 717,2256 z"
           id="path861"
           style="fill:#92278f;fill-opacity:1" />
      </g>
      <path
         id="path3403"
         style="opacity:1;fill:#ffffff;stroke:#81227e;stroke-width:28.2645;stroke-linecap:round;stroke-linejoin:round;stroke-miterlimit:4;stroke-dasharray:none;stroke-opacity:1;paint-order:stroke markers fill"
         d="m 206.63672,258.66702 c 0,-21.46513 11.33977,-41.29972 29.74792,-52.03228 18.40814,-10.73256 41.08792,-10.73256 59.49606,0 18.40814,10.73256 29.74802,30.56716 29.74802,52.03228 0,0 -16.59656,114.12048 -59.496,114.12048 -42.89944,0 -59.496,-114.12048 -59.496,-114.12048 z"
         sodipodi:nodetypes="csscsc" />
      <ellipse
         fill="#92278f"
         cx="266.13272"
         cy="242.79036"
         id="circle994"
         style="stroke-width:4.30135"
         rx="9.9991713"
         ry="28.505194" />
    </g>
  </g>
</svg>
